<?xml version="1.0" standalone="no"?>
<!DOCTYPE svg PUBLIC "-//W3C//DTD SVG 20010904//EN"
 "http://www.w3.org/TR/2001/REC-SVG-20010904/DTD/svg10.dtd">
<svg version="1.0" xmlns="http://www.w3.org/2000/svg"
 width="943.000000pt" height="943.000000pt" viewBox="0 0 943.000000 943.000000"
 preserveAspectRatio="xMidYMid meet">
<metadata>
Created by potrace 1.14, written by Peter Selinger 2001-2017
</metadata>
<g transform="translate(0.000000,943.000000) scale(0.100000,-0.100000)"
fill="#000000" stroke="none">
<path d="M2810 7940 c-402 -88 -976 -354 -1380 -640 -495 -349 -866 -773
-1100 -1255 -100 -205 -167 -430 -207 -685 -25 -163 -25 -568 0 -730 84 -543
293 -1006 640 -1420 135 -161 386 -406 557 -544 248 -199 562 -397 865 -546
692 -340 1489 -545 2425 -626 254 -21 865 -30 1127 -15 406 23 752 62 1128
126 864 147 1780 440 1860 595 31 61 10 136 -48 167 -56 31 -206 21 -642 -41
-1158 -164 -1634 -203 -2412 -193 -840 10 -1456 94 -2146 292 -380 109 -642
208 -962 365 -835 409 -1395 980 -1615 1648 -140 424 -146 834 -19 1212 117
347 300 636 599 944 301 310 610 538 1240 914 307 183 383 240 399 299 14 49
-6 102 -48 130 -43 29 -137 30 -261 3z"/>
<path d="M8174 6259 c-250 -19 -474 -121 -657 -298 -146 -141 -219 -278 -221
-412 -1 -66 2 -81 26 -116 38 -57 84 -77 172 -71 61 4 99 17 266 87 258 109
317 125 450 123 166 -2 226 -22 535 -177 281 -140 366 -172 435 -160 88 15
150 93 150 190 0 72 -48 198 -112 297 -171 263 -469 461 -783 521 -113 22
-158 25 -261 16z"/>
<path d="M3540 6205 c-8 -2 -49 -9 -90 -15 -41 -7 -127 -29 -190 -50 -343
-112 -649 -343 -851 -644 -192 -285 -233 -509 -108 -594 29 -20 44 -23 99 -20
85 4 153 43 385 215 400 296 564 380 824 418 222 32 376 -2 766 -169 228 -99
263 -109 341 -104 59 4 68 7 101 41 34 33 37 42 41 101 8 126 -57 246 -222
412 -204 203 -437 329 -715 385 -86 17 -343 34 -381 24z"/>
<path d="M4788 4370 c-92 -16 -131 -84 -131 -225 0 -279 190 -578 496 -783
308 -205 621 -291 1015 -279 387 12 696 115 970 322 165 125 208 176 274 329
50 115 88 255 88 324 0 100 -52 162 -137 162 -60 0 -87 -13 -189 -91 -71 -54
-113 -78 -195 -108 -222 -84 -405 -123 -654 -140 -250 -17 -491 10 -698 79
-154 52 -280 117 -470 245 -224 150 -288 179 -369 165z"/>
</g>
</svg>
